<mxfile host="65bd71144e">
    <diagram id="SquQREydCvLoQya-jrKG" name="Page-1">
        <mxGraphModel dx="2422" dy="708" grid="1" gridSize="10" guides="1" tooltips="1" connect="1" arrows="1" fold="1" page="1" pageScale="1" pageWidth="1100" pageHeight="1100" background="none" math="0" shadow="0">
            <root>
                <mxCell id="0"/>
                <mxCell id="1" parent="0"/>
                <mxCell id="213" style="edgeStyle=none;html=1;fontColor=none;startArrow=none;startFill=0;endArrow=none;endFill=0;" parent="1" source="212" target="5" edge="1">
                    <mxGeometry relative="1" as="geometry"/>
                </mxCell>
                <mxCell id="45" style="html=1;endArrow=none;endFill=0;" parent="1" source="9" target="37" edge="1">
                    <mxGeometry relative="1" as="geometry"/>
                </mxCell>
                <mxCell id="182" style="edgeStyle=none;html=1;fontColor=none;endArrow=none;endFill=0;" parent="1" source="181" target="16" edge="1">
                    <mxGeometry relative="1" as="geometry"/>
                </mxCell>
                <mxCell id="181" value="evaluation" style="ellipse;whiteSpace=wrap;html=1;" parent="1" vertex="1">
                    <mxGeometry x="539.9999999999999" y="660" width="63.33" height="40" as="geometry"/>
                </mxCell>
                <mxCell id="155" style="edgeStyle=none;html=1;endArrow=none;endFill=0;" parent="1" source="154" target="9" edge="1">
                    <mxGeometry relative="1" as="geometry"/>
                </mxCell>
                <mxCell id="64" value="dob" style="ellipse;whiteSpace=wrap;html=1;" parent="1" vertex="1">
                    <mxGeometry x="506.68" y="300" width="53.33" height="40" as="geometry"/>
                </mxCell>
                <mxCell id="36" style="html=1;entryX=0;entryY=0.5;entryDx=0;entryDy=0;endArrow=none;endFill=0;shape=link;" parent="1" source="5" target="35" edge="1">
                    <mxGeometry relative="1" as="geometry"/>
                </mxCell>
                <mxCell id="253" style="edgeStyle=none;html=1;endArrow=none;endFill=0;" edge="1" parent="1" source="5" target="252">
                    <mxGeometry relative="1" as="geometry"/>
                </mxCell>
                <mxCell id="5" value="Account" style="rounded=0;whiteSpace=wrap;html=1;fillColor=#bbbbbb;fontColor=#333333;strokeColor=#000000;" parent="1" vertex="1">
                    <mxGeometry x="440" y="360" width="120" height="40" as="geometry"/>
                </mxCell>
                <mxCell id="29" style="html=1;endArrow=none;endFill=0;startArrow=ERmandOne;startFill=0;" parent="1" source="6" target="20" edge="1">
                    <mxGeometry relative="1" as="geometry"/>
                </mxCell>
                <mxCell id="41" style="html=1;endArrow=none;endFill=0;shape=link;exitX=0.833;exitY=0.05;exitDx=0;exitDy=0;exitPerimeter=0;" parent="1" source="6" target="37" edge="1">
                    <mxGeometry relative="1" as="geometry"/>
                </mxCell>
                <mxCell id="78" style="edgeStyle=none;html=1;startArrow=none;startFill=0;endArrow=none;endFill=0;" parent="1" source="6" target="76" edge="1">
                    <mxGeometry relative="1" as="geometry"/>
                </mxCell>
                <mxCell id="6" value="Transaction" style="rounded=0;whiteSpace=wrap;html=1;fillColor=#bbbbbb;fontColor=#333333;strokeColor=#000000;" parent="1" vertex="1">
                    <mxGeometry y="880" width="120" height="40" as="geometry"/>
                </mxCell>
                <mxCell id="7" value="Verification" style="rounded=0;whiteSpace=wrap;html=1;fillColor=#bbbbbb;fontColor=#333333;strokeColor=#000000;" parent="1" vertex="1">
                    <mxGeometry x="880" y="640" width="120" height="40" as="geometry"/>
                </mxCell>
                <mxCell id="27" style="edgeStyle=orthogonalEdgeStyle;html=1;endArrow=none;endFill=0;startArrow=ERzeroToMany;startFill=0;" parent="1" source="104" target="22" edge="1">
                    <mxGeometry relative="1" as="geometry">
                        <Array as="points">
                            <mxPoint x="370" y="600"/>
                            <mxPoint x="370" y="720"/>
                            <mxPoint x="840" y="720"/>
                        </Array>
                    </mxGeometry>
                </mxCell>
                <mxCell id="42" style="html=1;startArrow=none;startFill=0;endArrow=none;endFill=0;" parent="1" source="8" target="37" edge="1">
                    <mxGeometry relative="1" as="geometry"/>
                </mxCell>
                <mxCell id="8" value="Loan" style="rounded=0;whiteSpace=wrap;html=1;fillColor=#bbbbbb;fontColor=#333333;strokeColor=#000000;" parent="1" vertex="1">
                    <mxGeometry x="120" y="760" width="120" height="40" as="geometry"/>
                </mxCell>
                <mxCell id="151" style="edgeStyle=none;html=1;endArrow=none;endFill=0;" parent="1" source="9" target="150" edge="1">
                    <mxGeometry relative="1" as="geometry"/>
                </mxCell>
                <mxCell id="153" style="edgeStyle=none;html=1;endArrow=none;endFill=0;" parent="1" source="9" target="152" edge="1">
                    <mxGeometry relative="1" as="geometry"/>
                </mxCell>
                <mxCell id="43" style="html=1;endArrow=none;endFill=0;" parent="1" source="10" target="37" edge="1">
                    <mxGeometry relative="1" as="geometry"/>
                </mxCell>
                <mxCell id="140" style="edgeStyle=none;html=1;endArrow=none;endFill=0;" parent="1" source="10" target="138" edge="1">
                    <mxGeometry relative="1" as="geometry"/>
                </mxCell>
                <mxCell id="141" style="edgeStyle=none;html=1;endArrow=none;endFill=0;" parent="1" source="10" target="139" edge="1">
                    <mxGeometry relative="1" as="geometry"/>
                </mxCell>
                <mxCell id="10" value="Transfer" style="rounded=0;whiteSpace=wrap;html=1;fillColor=#bbbbbb;fontColor=#333333;strokeColor=#000000;" parent="1" vertex="1">
                    <mxGeometry x="640.0000000000001" y="840" width="120" height="40" as="geometry"/>
                </mxCell>
                <mxCell id="11" value="Owner" style="rounded=0;whiteSpace=wrap;html=1;fillColor=#bbbbbb;fontColor=#333333;strokeColor=#000000;" parent="1" vertex="1">
                    <mxGeometry x="440" y="500" width="120" height="40" as="geometry"/>
                </mxCell>
                <mxCell id="23" style="edgeStyle=orthogonalEdgeStyle;html=1;endArrow=none;endFill=0;startArrow=ERmandOne;startFill=0;" parent="1" source="12" target="16" edge="1">
                    <mxGeometry relative="1" as="geometry">
                        <Array as="points">
                            <mxPoint x="640" y="580"/>
                        </Array>
                    </mxGeometry>
                </mxCell>
                <mxCell id="28" style="edgeStyle=orthogonalEdgeStyle;html=1;endArrow=none;endFill=0;startArrow=ERmandOne;startFill=0;" parent="1" source="12" target="22" edge="1">
                    <mxGeometry relative="1" as="geometry">
                        <Array as="points">
                            <mxPoint x="840" y="460"/>
                        </Array>
                        <mxPoint x="760" y="480" as="sourcePoint"/>
                    </mxGeometry>
                </mxCell>
                <mxCell id="12" value="Employee" style="rounded=0;whiteSpace=wrap;html=1;fillColor=#bbbbbb;fontColor=#333333;strokeColor=#000000;" parent="1" vertex="1">
                    <mxGeometry x="580" y="440" width="120" height="40" as="geometry"/>
                </mxCell>
                <mxCell id="24" style="edgeStyle=orthogonalEdgeStyle;html=1;endArrow=none;endFill=0;startArrow=ERmandOne;startFill=0;" parent="1" source="13" target="16" edge="1">
                    <mxGeometry relative="1" as="geometry">
                        <Array as="points">
                            <mxPoint x="340" y="440"/>
                            <mxPoint x="400" y="440"/>
                            <mxPoint x="400" y="600"/>
                        </Array>
                    </mxGeometry>
                </mxCell>
                <mxCell id="13" value="Customer" style="rounded=0;whiteSpace=wrap;html=1;fillColor=#bbbbbb;fontColor=#333333;strokeColor=#000000;" parent="1" vertex="1">
                    <mxGeometry x="300" y="420" width="120" height="40" as="geometry"/>
                </mxCell>
                <mxCell id="184" style="edgeStyle=orthogonalEdgeStyle;html=1;fontColor=none;endArrow=ERzeroToMany;endFill=0;" parent="1" source="16" target="183" edge="1">
                    <mxGeometry relative="1" as="geometry">
                        <Array as="points">
                            <mxPoint x="570" y="610"/>
                            <mxPoint x="570" y="610"/>
                        </Array>
                    </mxGeometry>
                </mxCell>
                <mxCell id="16" value="Contact" style="rhombus;whiteSpace=wrap;html=1;fillColor=#eaeaea;" parent="1" vertex="1">
                    <mxGeometry x="480" y="560" width="80" height="80" as="geometry"/>
                </mxCell>
                <mxCell id="34" style="html=1;endArrow=ERmandOne;endFill=0;" parent="1" source="17" target="5" edge="1">
                    <mxGeometry relative="1" as="geometry"/>
                </mxCell>
                <mxCell id="17" value="Sign In" style="rhombus;whiteSpace=wrap;html=1;fillColor=#eaeaea;" parent="1" vertex="1">
                    <mxGeometry x="680" y="340" width="80" height="80" as="geometry"/>
                </mxCell>
                <mxCell id="31" style="html=1;endArrow=none;endFill=0;startArrow=ERmandOne;startFill=0;" parent="1" source="18" target="19" edge="1">
                    <mxGeometry relative="1" as="geometry"/>
                </mxCell>
                <mxCell id="33" style="html=1;endArrow=none;endFill=0;startArrow=ERzeroToMany;startFill=0;" parent="1" source="18" target="17" edge="1">
                    <mxGeometry relative="1" as="geometry"/>
                </mxCell>
                <mxCell id="18" value="Activity" style="rounded=0;whiteSpace=wrap;html=1;fillColor=#bbbbbb;fontColor=#333333;strokeColor=#000000;" parent="1" vertex="1">
                    <mxGeometry x="880" y="360" width="120" height="40" as="geometry"/>
                </mxCell>
                <mxCell id="32" style="html=1;endArrow=ERoneToMany;endFill=0;" parent="1" source="19" target="7" edge="1">
                    <mxGeometry relative="1" as="geometry"/>
                </mxCell>
                <mxCell id="19" value="Need" style="rhombus;whiteSpace=wrap;html=1;fillColor=#eaeaea;" parent="1" vertex="1">
                    <mxGeometry x="900" y="440" width="80" height="80" as="geometry"/>
                </mxCell>
                <mxCell id="30" style="html=1;endArrow=ERoneToMany;endFill=0;edgeStyle=orthogonalEdgeStyle;" parent="1" source="20" target="7" edge="1">
                    <mxGeometry relative="1" as="geometry">
                        <Array as="points">
                            <mxPoint x="840" y="900"/>
                            <mxPoint x="840" y="750"/>
                            <mxPoint x="900" y="750"/>
                        </Array>
                    </mxGeometry>
                </mxCell>
                <mxCell id="20" value="Need" style="rhombus;whiteSpace=wrap;html=1;fillColor=#eaeaea;" parent="1" vertex="1">
                    <mxGeometry x="240" y="860" width="80" height="80" as="geometry"/>
                </mxCell>
                <mxCell id="123" style="edgeStyle=orthogonalEdgeStyle;html=1;endArrow=ERmandOne;endFill=0;" parent="1" source="21" target="46" edge="1">
                    <mxGeometry relative="1" as="geometry">
                        <Array as="points">
                            <mxPoint x="160" y="430"/>
                            <mxPoint x="80" y="430"/>
                        </Array>
                    </mxGeometry>
                </mxCell>
                <mxCell id="125" style="edgeStyle=orthogonalEdgeStyle;html=1;endArrow=ERzeroToMany;endFill=0;" parent="1" source="21" target="104" edge="1">
                    <mxGeometry relative="1" as="geometry">
                        <Array as="points">
                            <mxPoint x="160" y="560"/>
                            <mxPoint x="160" y="560"/>
                        </Array>
                    </mxGeometry>
                </mxCell>
                <mxCell id="21" value="Request" style="rhombus;whiteSpace=wrap;html=1;fillColor=#eaeaea;" parent="1" vertex="1">
                    <mxGeometry x="120" y="460" width="80" height="80" as="geometry"/>
                </mxCell>
                <mxCell id="22" value="Response" style="rhombus;whiteSpace=wrap;html=1;fillColor=#eaeaea;" parent="1" vertex="1">
                    <mxGeometry x="800" y="560" width="80" height="80" as="geometry"/>
                </mxCell>
                <mxCell id="38" style="html=1;endArrow=none;endFill=0;" parent="1" source="35" target="13" edge="1">
                    <mxGeometry relative="1" as="geometry"/>
                </mxCell>
                <mxCell id="39" style="html=1;endArrow=none;endFill=0;" parent="1" source="35" target="12" edge="1">
                    <mxGeometry relative="1" as="geometry"/>
                </mxCell>
                <mxCell id="40" style="html=1;endArrow=none;endFill=0;" parent="1" source="35" target="11" edge="1">
                    <mxGeometry relative="1" as="geometry"/>
                </mxCell>
                <mxCell id="35" value="d" style="ellipse;whiteSpace=wrap;html=1;direction=south;" parent="1" vertex="1">
                    <mxGeometry x="490" y="450" width="20" height="20" as="geometry"/>
                </mxCell>
                <mxCell id="37" value="d" style="ellipse;whiteSpace=wrap;html=1;direction=south;" parent="1" vertex="1">
                    <mxGeometry x="90" y="840" width="20" height="20" as="geometry"/>
                </mxCell>
                <mxCell id="53" style="html=1;endArrow=none;endFill=0;startArrow=ERzeroToOne;startFill=0;" parent="1" source="46" target="52" edge="1">
                    <mxGeometry relative="1" as="geometry"/>
                </mxCell>
                <mxCell id="46" value="Transaction Account" style="rounded=0;whiteSpace=wrap;html=1;fillColor=#bbbbbb;fontColor=#333333;strokeColor=#000000;" parent="1" vertex="1">
                    <mxGeometry y="360" width="120" height="40" as="geometry"/>
                </mxCell>
                <mxCell id="50" style="html=1;endArrow=ERmandOne;endFill=0;edgeStyle=orthogonalEdgeStyle;" parent="1" source="49" target="46" edge="1">
                    <mxGeometry relative="1" as="geometry">
                        <Array as="points">
                            <mxPoint x="40" y="460"/>
                            <mxPoint x="40" y="460"/>
                        </Array>
                    </mxGeometry>
                </mxCell>
                <mxCell id="57" style="html=1;startArrow=none;startFill=0;endArrow=ERzeroToMany;endFill=0;edgeStyle=orthogonalEdgeStyle;" parent="1" source="49" target="6" edge="1">
                    <mxGeometry relative="1" as="geometry">
                        <Array as="points">
                            <mxPoint x="40" y="840"/>
                            <mxPoint x="40" y="840"/>
                        </Array>
                    </mxGeometry>
                </mxCell>
                <mxCell id="49" value="Make" style="rhombus;whiteSpace=wrap;html=1;fillColor=#eaeaea;" parent="1" vertex="1">
                    <mxGeometry y="600" width="80" height="80" as="geometry"/>
                </mxCell>
                <mxCell id="247" style="edgeStyle=none;html=1;endArrow=ERmandOne;endFill=0;" parent="1" source="52" target="5" edge="1">
                    <mxGeometry relative="1" as="geometry"/>
                </mxCell>
                <mxCell id="52" value="Own" style="rhombus;whiteSpace=wrap;html=1;fillColor=#eaeaea;" parent="1" vertex="1">
                    <mxGeometry x="200.01" y="340" width="80" height="80" as="geometry"/>
                </mxCell>
                <mxCell id="68" style="edgeStyle=none;html=1;startArrow=none;startFill=0;endArrow=none;endFill=0;" parent="1" source="63" target="5" edge="1">
                    <mxGeometry relative="1" as="geometry"/>
                </mxCell>
                <mxCell id="71" style="edgeStyle=none;html=1;startArrow=none;startFill=0;endArrow=none;endFill=0;" parent="1" source="64" target="5" edge="1">
                    <mxGeometry relative="1" as="geometry"/>
                </mxCell>
                <mxCell id="70" style="edgeStyle=none;html=1;startArrow=none;startFill=0;endArrow=none;endFill=0;" parent="1" source="65" target="5" edge="1">
                    <mxGeometry relative="1" as="geometry"/>
                </mxCell>
                <mxCell id="65" value="phone&lt;br&gt;number" style="ellipse;whiteSpace=wrap;html=1;" parent="1" vertex="1">
                    <mxGeometry x="570.01" y="300" width="53.33" height="40" as="geometry"/>
                </mxCell>
                <mxCell id="69" style="edgeStyle=none;html=1;startArrow=none;startFill=0;endArrow=none;endFill=0;" parent="1" source="66" target="5" edge="1">
                    <mxGeometry relative="1" as="geometry"/>
                </mxCell>
                <mxCell id="66" value="address" style="ellipse;whiteSpace=wrap;html=1;" parent="1" vertex="1">
                    <mxGeometry x="446.67" y="300" width="53.33" height="40" as="geometry"/>
                </mxCell>
                <mxCell id="63" value="firstname" style="ellipse;whiteSpace=wrap;html=1;" parent="1" vertex="1">
                    <mxGeometry x="326.67" y="300" width="53.33" height="40" as="geometry"/>
                </mxCell>
                <mxCell id="74" style="edgeStyle=none;html=1;startArrow=none;startFill=0;endArrow=none;endFill=0;" parent="1" source="72" target="46" edge="1">
                    <mxGeometry relative="1" as="geometry"/>
                </mxCell>
                <mxCell id="72" value="account&lt;br&gt;number" style="ellipse;whiteSpace=wrap;html=1;" parent="1" vertex="1">
                    <mxGeometry y="300" width="53.33" height="40" as="geometry"/>
                </mxCell>
                <mxCell id="75" style="edgeStyle=none;html=1;startArrow=none;startFill=0;endArrow=none;endFill=0;" parent="1" source="73" target="46" edge="1">
                    <mxGeometry relative="1" as="geometry"/>
                </mxCell>
                <mxCell id="73" value="balance" style="ellipse;whiteSpace=wrap;html=1;" parent="1" vertex="1">
                    <mxGeometry x="73.34" y="300" width="53.33" height="40" as="geometry"/>
                </mxCell>
                <mxCell id="79" style="edgeStyle=none;html=1;startArrow=none;startFill=0;endArrow=none;endFill=0;" parent="1" source="77" target="6" edge="1">
                    <mxGeometry relative="1" as="geometry"/>
                </mxCell>
                <mxCell id="83" style="edgeStyle=none;html=1;startArrow=none;startFill=0;endArrow=none;endFill=0;" parent="1" source="80" target="7" edge="1">
                    <mxGeometry relative="1" as="geometry"/>
                </mxCell>
                <mxCell id="80" value="state" style="ellipse;whiteSpace=wrap;html=1;" parent="1" vertex="1">
                    <mxGeometry x="980" y="580" width="53.33" height="40" as="geometry"/>
                </mxCell>
                <mxCell id="82" style="edgeStyle=none;html=1;startArrow=none;startFill=0;endArrow=none;endFill=0;" parent="1" source="81" target="7" edge="1">
                    <mxGeometry relative="1" as="geometry"/>
                </mxCell>
                <mxCell id="81" value="number of generated codes" style="ellipse;whiteSpace=wrap;html=1;" parent="1" vertex="1">
                    <mxGeometry x="1010" y="620" width="80" height="60" as="geometry"/>
                </mxCell>
                <mxCell id="86" style="edgeStyle=none;html=1;startArrow=none;startFill=0;endArrow=none;endFill=0;" parent="1" source="84" target="18" edge="1">
                    <mxGeometry relative="1" as="geometry"/>
                </mxCell>
                <mxCell id="84" value="created&lt;br&gt;time" style="ellipse;whiteSpace=wrap;html=1;" parent="1" vertex="1">
                    <mxGeometry x="813.33" y="300" width="53.33" height="40" as="geometry"/>
                </mxCell>
                <mxCell id="87" style="edgeStyle=none;html=1;startArrow=none;startFill=0;endArrow=none;endFill=0;" parent="1" source="85" target="18" edge="1">
                    <mxGeometry relative="1" as="geometry"/>
                </mxCell>
                <mxCell id="85" value="state" style="ellipse;whiteSpace=wrap;html=1;" parent="1" vertex="1">
                    <mxGeometry x="990" y="300" width="53.33" height="40" as="geometry"/>
                </mxCell>
                <mxCell id="97" style="edgeStyle=none;html=1;startArrow=none;startFill=0;endArrow=none;endFill=0;" parent="1" source="96" target="6" edge="1">
                    <mxGeometry relative="1" as="geometry"/>
                </mxCell>
                <mxCell id="96" value="amount" style="ellipse;whiteSpace=wrap;html=1;" parent="1" vertex="1">
                    <mxGeometry x="130.01" y="940" width="53.33" height="40" as="geometry"/>
                </mxCell>
                <mxCell id="76" value="created time" style="ellipse;whiteSpace=wrap;html=1;" parent="1" vertex="1">
                    <mxGeometry x="-50" y="940" width="53.33" height="40" as="geometry"/>
                </mxCell>
                <mxCell id="102" style="html=1;startArrow=none;startFill=0;endArrow=none;endFill=0;" parent="1" source="100" target="6" edge="1">
                    <mxGeometry relative="1" as="geometry"/>
                </mxCell>
                <mxCell id="100" value="name" style="ellipse;whiteSpace=wrap;html=1;aspect=fixed;" parent="1" vertex="1">
                    <mxGeometry x="70" y="940" width="53.33" height="40" as="geometry"/>
                </mxCell>
                <mxCell id="77" value="state" style="ellipse;whiteSpace=wrap;html=1;" parent="1" vertex="1">
                    <mxGeometry x="6.670000000000002" y="940" width="53.33" height="40" as="geometry"/>
                </mxCell>
                <mxCell id="127" style="html=1;endArrow=none;endFill=0;" parent="1" source="104" target="126" edge="1">
                    <mxGeometry relative="1" as="geometry"/>
                </mxCell>
                <mxCell id="129" style="edgeStyle=none;html=1;endArrow=none;endFill=0;" parent="1" source="104" target="128" edge="1">
                    <mxGeometry relative="1" as="geometry"/>
                </mxCell>
                <mxCell id="131" style="edgeStyle=none;html=1;endArrow=none;endFill=0;" parent="1" source="104" target="130" edge="1">
                    <mxGeometry relative="1" as="geometry"/>
                </mxCell>
                <mxCell id="133" style="edgeStyle=none;html=1;endArrow=none;endFill=0;" parent="1" source="104" target="132" edge="1">
                    <mxGeometry relative="1" as="geometry"/>
                </mxCell>
                <mxCell id="104" value="Loan Request" style="rounded=0;whiteSpace=wrap;html=1;fillColor=#bbbbbb;fontColor=#333333;strokeColor=#000000;" parent="1" vertex="1">
                    <mxGeometry x="120" y="580" width="120" height="40" as="geometry"/>
                </mxCell>
                <mxCell id="109" style="edgeStyle=orthogonalEdgeStyle;html=1;startArrow=none;startFill=0;endArrow=ERmandOne;endFill=0;entryX=0.333;entryY=1;entryDx=0;entryDy=0;entryPerimeter=0;" parent="1" source="106" target="104" edge="1">
                    <mxGeometry relative="1" as="geometry"/>
                </mxCell>
                <mxCell id="110" style="edgeStyle=orthogonalEdgeStyle;html=1;startArrow=none;startFill=0;endArrow=ERzeroToOne;endFill=0;" parent="1" source="106" target="8" edge="1">
                    <mxGeometry relative="1" as="geometry">
                        <Array as="points">
                            <mxPoint x="160" y="745"/>
                            <mxPoint x="160" y="745"/>
                        </Array>
                    </mxGeometry>
                </mxCell>
                <mxCell id="106" value="Create" style="rhombus;whiteSpace=wrap;html=1;fillColor=#eaeaea;" parent="1" vertex="1">
                    <mxGeometry x="120" y="650" width="80" height="80" as="geometry"/>
                </mxCell>
                <mxCell id="121" style="html=1;endArrow=none;endFill=0;" parent="1" source="111" target="112" edge="1">
                    <mxGeometry relative="1" as="geometry"/>
                </mxCell>
                <mxCell id="122" style="edgeStyle=none;html=1;endArrow=none;endFill=0;" parent="1" source="111" target="113" edge="1">
                    <mxGeometry relative="1" as="geometry"/>
                </mxCell>
                <mxCell id="111" value="Verification Code" style="rounded=0;whiteSpace=wrap;html=1;fillColor=#bbbbbb;fontColor=#333333;strokeColor=#000000;" parent="1" vertex="1">
                    <mxGeometry x="880" y="880" width="120" height="40" as="geometry"/>
                </mxCell>
                <mxCell id="112" value="code" style="ellipse;whiteSpace=wrap;html=1;aspect=fixed;" parent="1" vertex="1">
                    <mxGeometry x="913.34" y="940" width="53.33" height="40" as="geometry"/>
                </mxCell>
                <mxCell id="113" value="expired time" style="ellipse;whiteSpace=wrap;html=1;" parent="1" vertex="1">
                    <mxGeometry x="980" y="940" width="53.33" height="40" as="geometry"/>
                </mxCell>
                <mxCell id="117" style="edgeStyle=orthogonalEdgeStyle;html=1;endArrow=ERmandOne;endFill=0;" parent="1" source="115" target="7" edge="1">
                    <mxGeometry relative="1" as="geometry"/>
                </mxCell>
                <mxCell id="120" style="edgeStyle=orthogonalEdgeStyle;html=1;endArrow=ERoneToMany;endFill=0;" parent="1" source="115" target="111" edge="1">
                    <mxGeometry relative="1" as="geometry"/>
                </mxCell>
                <mxCell id="115" value="Create" style="rhombus;whiteSpace=wrap;html=1;fillColor=#eaeaea;" parent="1" vertex="1">
                    <mxGeometry x="900" y="760" width="80" height="80" as="geometry"/>
                </mxCell>
                <mxCell id="126" value="name" style="ellipse;whiteSpace=wrap;html=1;" parent="1" vertex="1">
                    <mxGeometry x="213.33999999999997" y="440" width="53.33" height="40" as="geometry"/>
                </mxCell>
                <mxCell id="128" value="purpose" style="ellipse;whiteSpace=wrap;html=1;" parent="1" vertex="1">
                    <mxGeometry x="300" y="540" width="53.33" height="40" as="geometry"/>
                </mxCell>
                <mxCell id="130" value="state" style="ellipse;whiteSpace=wrap;html=1;" parent="1" vertex="1">
                    <mxGeometry x="320.00000000000006" y="480" width="53.33" height="40" as="geometry"/>
                </mxCell>
                <mxCell id="132" value="amount" style="ellipse;whiteSpace=wrap;html=1;" parent="1" vertex="1">
                    <mxGeometry x="246.67000000000002" y="490" width="53.33" height="40" as="geometry"/>
                </mxCell>
                <mxCell id="138" value="content" style="ellipse;whiteSpace=wrap;html=1;" parent="1" vertex="1">
                    <mxGeometry x="673.33" y="770" width="53.33" height="40" as="geometry"/>
                </mxCell>
                <mxCell id="139" value="charge&lt;br&gt;option" style="ellipse;whiteSpace=wrap;html=1;" parent="1" vertex="1">
                    <mxGeometry x="770.0000000000001" y="800" width="53.33" height="40" as="geometry"/>
                </mxCell>
                <mxCell id="150" value="interest" style="ellipse;whiteSpace=wrap;html=1;" parent="1" vertex="1">
                    <mxGeometry x="463.3299999999999" y="820" width="53.33" height="40" as="geometry"/>
                </mxCell>
                <mxCell id="152" value="maturity&lt;br&gt;date" style="ellipse;whiteSpace=wrap;html=1;" parent="1" vertex="1">
                    <mxGeometry x="580" y="790" width="53.33" height="40" as="geometry"/>
                </mxCell>
                <mxCell id="154" value="rolled over" style="ellipse;whiteSpace=wrap;html=1;" parent="1" vertex="1">
                    <mxGeometry x="410.0000000000002" y="802.5" width="53.33" height="40" as="geometry"/>
                </mxCell>
                <mxCell id="162" style="edgeStyle=none;html=1;endArrow=none;endFill=0;" parent="1" source="159" target="16" edge="1">
                    <mxGeometry relative="1" as="geometry"/>
                </mxCell>
                <mxCell id="159" value="created&lt;br&gt;time" style="ellipse;whiteSpace=wrap;html=1;" parent="1" vertex="1">
                    <mxGeometry x="479.99999999999994" y="660" width="53.33" height="40" as="geometry"/>
                </mxCell>
                <mxCell id="164" style="edgeStyle=none;html=1;endArrow=none;endFill=0;" parent="1" source="163" target="16" edge="1">
                    <mxGeometry relative="1" as="geometry"/>
                </mxCell>
                <mxCell id="163" value="end&lt;br&gt;time" style="ellipse;whiteSpace=wrap;html=1;" parent="1" vertex="1">
                    <mxGeometry x="419.9999999999999" y="660" width="53.33" height="40" as="geometry"/>
                </mxCell>
                <mxCell id="167" style="edgeStyle=none;html=1;endArrow=none;endFill=0;" parent="1" source="166" target="16" edge="1">
                    <mxGeometry relative="1" as="geometry"/>
                </mxCell>
                <mxCell id="166" value="state" style="ellipse;whiteSpace=wrap;html=1;" parent="1" vertex="1">
                    <mxGeometry x="613.3299999999999" y="660" width="53.33" height="40" as="geometry"/>
                </mxCell>
                <mxCell id="169" style="edgeStyle=none;html=1;fontColor=none;endArrow=none;endFill=0;" parent="1" source="168" target="18" edge="1">
                    <mxGeometry relative="1" as="geometry"/>
                </mxCell>
                <mxCell id="168" value="expired&lt;br&gt;time" style="ellipse;whiteSpace=wrap;html=1;" parent="1" vertex="1">
                    <mxGeometry x="873.33" y="300" width="53.33" height="40" as="geometry"/>
                </mxCell>
                <mxCell id="171" style="edgeStyle=none;html=1;fontColor=none;endArrow=none;endFill=0;" parent="1" source="170" target="5" edge="1">
                    <mxGeometry relative="1" as="geometry"/>
                </mxCell>
                <mxCell id="170" value="lastname" style="ellipse;whiteSpace=wrap;html=1;" parent="1" vertex="1">
                    <mxGeometry x="383.34000000000003" y="300" width="53.33" height="40" as="geometry"/>
                </mxCell>
                <mxCell id="174" style="edgeStyle=none;html=1;fontColor=none;endArrow=none;endFill=0;" parent="1" source="173" target="18" edge="1">
                    <mxGeometry relative="1" as="geometry"/>
                </mxCell>
                <mxCell id="173" value="end&lt;br&gt;time" style="ellipse;whiteSpace=wrap;html=1;" parent="1" vertex="1">
                    <mxGeometry x="933.33" y="300" width="53.33" height="40" as="geometry"/>
                </mxCell>
                <mxCell id="176" style="edgeStyle=none;html=1;fontColor=none;endArrow=none;endFill=0;" parent="1" source="175" target="7" edge="1">
                    <mxGeometry relative="1" as="geometry"/>
                </mxCell>
                <mxCell id="175" value="created&lt;br&gt;time" style="ellipse;whiteSpace=wrap;html=1;" parent="1" vertex="1">
                    <mxGeometry x="1020" y="690" width="53.33" height="40" as="geometry"/>
                </mxCell>
                <mxCell id="178" style="edgeStyle=none;html=1;fontColor=none;endArrow=none;endFill=0;" parent="1" source="177" target="111" edge="1">
                    <mxGeometry relative="1" as="geometry"/>
                </mxCell>
                <mxCell id="177" value="created&lt;br&gt;time" style="ellipse;whiteSpace=wrap;html=1;" parent="1" vertex="1">
                    <mxGeometry x="846.67" y="940" width="53.33" height="40" as="geometry"/>
                </mxCell>
                <mxCell id="180" style="edgeStyle=none;html=1;fontColor=none;endArrow=none;endFill=0;" parent="1" source="179" target="7" edge="1">
                    <mxGeometry relative="1" as="geometry"/>
                </mxCell>
                <mxCell id="179" value="expired&lt;br&gt;time" style="ellipse;whiteSpace=wrap;html=1;" parent="1" vertex="1">
                    <mxGeometry x="966.67" y="710" width="53.33" height="40" as="geometry"/>
                </mxCell>
                <mxCell id="191" style="html=1;fontColor=none;startArrow=none;startFill=0;endArrow=none;endFill=0;" parent="1" source="183" target="189" edge="1">
                    <mxGeometry relative="1" as="geometry"/>
                </mxCell>
                <mxCell id="192" style="edgeStyle=none;html=1;fontColor=none;startArrow=none;startFill=0;endArrow=none;endFill=0;" parent="1" source="183" target="190" edge="1">
                    <mxGeometry relative="1" as="geometry"/>
                </mxCell>
                <mxCell id="183" value="Message" style="rounded=0;whiteSpace=wrap;html=1;fillColor=#bbbbbb;fontColor=#333333;strokeColor=#000000;" parent="1" vertex="1">
                    <mxGeometry x="660.0000000000001" y="590" width="120" height="40" as="geometry"/>
                </mxCell>
                <mxCell id="189" value="time" style="ellipse;whiteSpace=wrap;html=1;" parent="1" vertex="1">
                    <mxGeometry x="673.3400000000001" y="520" width="53.33" height="40" as="geometry"/>
                </mxCell>
                <mxCell id="190" value="content" style="ellipse;whiteSpace=wrap;html=1;" parent="1" vertex="1">
                    <mxGeometry x="746.67" y="520" width="53.33" height="40" as="geometry"/>
                </mxCell>
                <mxCell id="9" value="TimeDeposit" style="rounded=0;whiteSpace=wrap;html=1;fillColor=#bbbbbb;fontColor=#333333;strokeColor=#000000;" parent="1" vertex="1">
                    <mxGeometry x="430" y="740" width="120" height="40" as="geometry"/>
                </mxCell>
                <mxCell id="195" style="edgeStyle=none;html=1;fontColor=none;startArrow=none;startFill=0;endArrow=none;endFill=0;" parent="1" source="194" target="9" edge="1">
                    <mxGeometry relative="1" as="geometry"/>
                </mxCell>
                <mxCell id="197" value="" style="edgeStyle=none;html=1;fontColor=none;startArrow=none;startFill=0;endArrow=none;endFill=0;" parent="1" source="194" target="9" edge="1">
                    <mxGeometry relative="1" as="geometry"/>
                </mxCell>
                <mxCell id="194" value="end&lt;br&gt;date" style="ellipse;whiteSpace=wrap;html=1;" parent="1" vertex="1">
                    <mxGeometry x="590" y="745" width="53.33" height="40" as="geometry"/>
                </mxCell>
                <mxCell id="239" style="edgeStyle=none;html=1;endArrow=none;endFill=0;" parent="1" source="199" target="104" edge="1">
                    <mxGeometry relative="1" as="geometry"/>
                </mxCell>
                <mxCell id="199" value="interest" style="ellipse;whiteSpace=wrap;html=1;" parent="1" vertex="1">
                    <mxGeometry x="300.00000000000006" y="610" width="53.33" height="40" as="geometry"/>
                </mxCell>
                <mxCell id="238" style="edgeStyle=none;html=1;endArrow=none;endFill=0;" parent="1" source="201" target="104" edge="1">
                    <mxGeometry relative="1" as="geometry"/>
                </mxCell>
                <mxCell id="201" value="start&lt;br&gt;date" style="ellipse;whiteSpace=wrap;html=1;" parent="1" vertex="1">
                    <mxGeometry x="300.00000000000006" y="670" width="53.33" height="40" as="geometry"/>
                </mxCell>
                <mxCell id="240" style="edgeStyle=none;html=1;endArrow=none;endFill=0;" parent="1" source="205" target="104" edge="1">
                    <mxGeometry relative="1" as="geometry"/>
                </mxCell>
                <mxCell id="205" value="end&lt;br&gt;date" style="ellipse;whiteSpace=wrap;html=1;" parent="1" vertex="1">
                    <mxGeometry x="213.34000000000003" y="650" width="53.33" height="40" as="geometry"/>
                </mxCell>
                <mxCell id="212" value="email" style="ellipse;whiteSpace=wrap;html=1;" parent="1" vertex="1">
                    <mxGeometry x="633.33" y="300" width="53.33" height="40" as="geometry"/>
                </mxCell>
                <mxCell id="243" style="edgeStyle=none;html=1;endArrow=none;endFill=0;" parent="1" source="242" target="8" edge="1">
                    <mxGeometry relative="1" as="geometry"/>
                </mxCell>
                <mxCell id="242" value="number of" style="ellipse;whiteSpace=wrap;html=1;" parent="1" vertex="1">
                    <mxGeometry x="240.00000000000003" y="710" width="53.33" height="40" as="geometry"/>
                </mxCell>
                <mxCell id="246" style="edgeStyle=none;html=1;endArrow=none;endFill=0;" parent="1" source="245" target="8" edge="1">
                    <mxGeometry relative="1" as="geometry"/>
                </mxCell>
                <mxCell id="245" value="disbursement" style="ellipse;whiteSpace=wrap;html=1;" parent="1" vertex="1">
                    <mxGeometry x="300" y="740" width="80" height="40" as="geometry"/>
                </mxCell>
                <mxCell id="249" style="edgeStyle=none;html=1;startArrow=none;startFill=0;endArrow=none;endFill=0;" parent="1" source="248" target="10" edge="1">
                    <mxGeometry relative="1" as="geometry"/>
                </mxCell>
                <mxCell id="248" value="fee" style="ellipse;whiteSpace=wrap;html=1;" parent="1" vertex="1">
                    <mxGeometry x="730" y="750" width="53.33" height="40" as="geometry"/>
                </mxCell>
                <mxCell id="251" style="edgeStyle=none;html=1;endArrow=none;endFill=0;" parent="1" source="250" target="9" edge="1">
                    <mxGeometry relative="1" as="geometry"/>
                </mxCell>
                <mxCell id="250" value="penalty&lt;br&gt;interest" style="ellipse;whiteSpace=wrap;html=1;" parent="1" vertex="1">
                    <mxGeometry x="522.9999999999999" y="810" width="53.33" height="40" as="geometry"/>
                </mxCell>
                <mxCell id="252" value="password" style="ellipse;whiteSpace=wrap;html=1;" vertex="1" parent="1">
                    <mxGeometry x="260" y="300" width="60" height="40" as="geometry"/>
                </mxCell>
            </root>
        </mxGraphModel>
    </diagram>
</mxfile>